<svg xmlns="http://www.w3.org/2000/svg" viewBox="0 0 20 20"><defs><style>.cls-1{fill:#1eb2f4;}.cls-2{fill:none;stroke:#000;stroke-linecap:round;stroke-linejoin:round;stroke-width:2px;}</style></defs><g id="Layer_2" data-name="Layer 2"><g id="Layer_1-2" data-name="Layer 1"><rect class="cls-1" x="7.35" y="-2.18" width="5.83" height="18.19" transform="matrix(0, 1, -1, 0, 17.18, -3.35)"/><path class="cls-2" d="M19,1V4M1,1V4M1,4V8a2,2,0,0,0,2,2H13M1,4H13m6,0V8a2,2,0,0,1-2,2H13m6-6H13m0-3V4m0,0v6M7,1v9m3,3v3m0,0v3m0-3H7m3,0h3"/></g></g></svg>