<?xml version="1.0" encoding="utf-8"?>
<!-- Generator: Adobe Illustrator 25.4.1, SVG Export Plug-In . SVG Version: 6.00 Build 0)  -->
<svg version="1.1" id="Layer_1" xmlns="http://www.w3.org/2000/svg" xmlns:xlink="http://www.w3.org/1999/xlink" x="0px" y="0px"
	 viewBox="0 0 20 20" style="enable-background:new 0 0 20 20;" xml:space="preserve">
<style type="text/css">
	.st0{opacity:0.5;fill:#4BBFE8;}
	.st1{fill:#ADC2C9;}
</style>
<g id="Layer_2_00000161592673225523290580000003208150278581624729_">
	<g id="Layer_1-2">
		<rect x="4" y="0.6" class="st0" width="5.8" height="18.2"/>
		<path class="st1" d="M20,10c0,0.6-0.4,1-1,1h-2v2c0,0.6-0.4,1-1,1c-0.6,0-1-0.4-1-1v-2h-2c-0.6,0-1-0.4-1-1s0.4-1,1-1h2V7
			c0-0.6,0.4-1,1-1c0.6,0,1,0.4,1,1v2h2C19.6,9,20,9.4,20,10z M11,3v14c0,1.7-1.3,3-3,3H1c-0.6,0-1-0.4-1-1s0.4-1,1-1h2v-4H1
			c-0.6,0-1-0.4-1-1s0.4-1,1-1h2V8H1C0.4,8,0,7.6,0,7s0.4-1,1-1h2V2H1C0.4,2,0,1.6,0,1s0.4-1,1-1h7C9.7,0,11,1.3,11,3z M9,6V3
			c0-0.6-0.4-1-1-1H5v4H9z M9,12V8H5v4H9z M5,18h3c0.6,0,1-0.4,1-1v-3H5V18z"/>
	</g>
</g>
</svg>
