<svg xmlns="http://www.w3.org/2000/svg" viewBox="0 0 20 20"><defs><style>.cls-1{fill:#4bbfe8;}.cls-2{fill:#2d2d2d;}</style></defs><g id="Layer_2" data-name="Layer 2"><g id="Layer_1-2" data-name="Layer 1"><rect class="cls-1" x="4" y="0.64" width="5.83" height="18.19"/><path class="cls-2" d="M20,10a1,1,0,0,1-1,1H17v2a1,1,0,0,1-2,0V11H13a1,1,0,0,1,0-2h2V7a1,1,0,0,1,2,0V9h2A1,1,0,0,1,20,10ZM11,3V17a3,3,0,0,1-3,3H1a1,1,0,0,1,0-2H3V14H1a1,1,0,0,1,0-2H3V8H1A1,1,0,0,1,1,6H3V2H1A1,1,0,0,1,1,0H8A3,3,0,0,1,11,3ZM9,6V3A1,1,0,0,0,8,2H5V6Zm0,6V8H5v4ZM5,18H8a1,1,0,0,0,1-1V14H5Z"/></g></g></svg>