<svg xmlns="http://www.w3.org/2000/svg" viewBox="0 0 20 20"><defs><style>.cls-1{fill:#4bbfe8;}.cls-2{fill:#2d2d2d;}</style></defs><g id="Layer_2" data-name="Layer 2"><g id="Layer_1-2" data-name="Layer 1"><rect class="cls-1" x="7.35" y="-2.18" width="5.83" height="18.19" transform="matrix(0, 1, -1, 0, 17.18, -3.35)"/><path class="cls-2" d="M10,20a1,1,0,0,1-1-1V17H7a1,1,0,0,1,0-2H9V13a1,1,0,0,1,2,0v2h2a1,1,0,0,1,0,2H11v2A1,1,0,0,1,10,20Zm7-9H3A3,3,0,0,1,0,8V1A1,1,0,0,1,2,1V3H6V1A1,1,0,0,1,8,1V3h4V1a1,1,0,0,1,2,0V3h4V1a1,1,0,0,1,2,0V8A3,3,0,0,1,17,11ZM14,9h3a1,1,0,0,0,1-1V5H14ZM8,9h4V5H8ZM2,5V8A1,1,0,0,0,3,9H6V5Z"/></g></g></svg>