<?xml version="1.0" encoding="utf-8"?>
<!-- Generator: Adobe Illustrator 25.4.1, SVG Export Plug-In . SVG Version: 6.00 Build 0)  -->
<svg version="1.1" id="Clear_Image" xmlns="http://www.w3.org/2000/svg" xmlns:xlink="http://www.w3.org/1999/xlink" x="0px"
	 y="0px" viewBox="0 0 16 16" style="enable-background:new 0 0 16 16;" xml:space="preserve">
<g>
	<path d="M0,3c0-1.1,0.9-2,2-2h12c1.1,0,2,0.9,2,2v10c0,1.1-0.9,2-2,2H2c-1.1,0-2-0.9-2-2V3z M1.5,3v10c0,0.3,0.2,0.5,0.5,0.5h12
		c0.3,0,0.5-0.2,0.5-0.5V3c0-0.3-0.2-0.5-0.5-0.5H2C1.7,2.5,1.5,2.7,1.5,3z M5.5,5.5c0.3-0.3,0.8-0.3,1,0L8,6.9l1.5-1.5
		c0.3-0.3,0.8-0.3,1,0c0.3,0.3,0.3,0.8,0,1L9.1,8l1.4,1.5c0.3,0.3,0.3,0.8,0,1c-0.3,0.3-0.7,0.3-1,0L8,9.1l-1.5,1.4
		c-0.3,0.3-0.7,0.3-1,0c-0.3-0.3-0.3-0.7,0-1L6.9,8L5.5,6.5C5.2,6.2,5.2,5.8,5.5,5.5z"/>
</g>
</svg>
