<svg xmlns="http://www.w3.org/2000/svg" viewBox="0 0 495.9 495.9"><defs><style>.cls-1{fill:none;}.cls-1,.cls-2{stroke:#414042;}.cls-1,.cls-2,.cls-3{stroke-miterlimit:10;stroke-width:50px;}.cls-2,.cls-3{fill:#fff;}.cls-3{stroke:#00aeef;}</style></defs><g id="Layer_2" data-name="Layer 2"><g id="Layer_9" data-name="Layer 9"><path class="cls-1" d="M25,435.66V60.25A35.25,35.25,0,0,1,60.25,25H435.66A35.25,35.25,0,0,1,470.9,60.25V435.66a35.24,35.24,0,0,1-35.24,35.24H60.25A35.25,35.25,0,0,1,25,435.66Z"/><line class="cls-2" x1="25" y1="132.04" x2="470.9" y2="132.04"/><line class="cls-2" x1="25" y1="363.36" x2="470.9" y2="363.36"/><line class="cls-2" x1="247.95" y1="25" x2="247.95" y2="308.91"/><line class="cls-2" x1="247.95" y1="308.91" x2="247.95" y2="470.9"/><line class="cls-3" x1="162.48" y1="247.95" x2="73.15" y2="247.95"/><line class="cls-3" x1="422.37" y1="247.95" x2="333.04" y2="247.95"/><polygon class="cls-3" points="156.56 247.95 141.19 239.08 141.19 256.82 156.56 247.95"/><polygon class="cls-3" points="339.78 247.95 355.15 256.82 355.15 239.08 339.78 247.95"/></g></g></svg>