<svg xmlns="http://www.w3.org/2000/svg" viewBox="0 0 495.9 495.9"><defs><style>.cls-1{fill:none;}.cls-1,.cls-2{stroke:#414042;}.cls-1,.cls-2,.cls-3{stroke-miterlimit:10;stroke-width:50px;}.cls-2,.cls-3{fill:#fff;}.cls-3{stroke:#231f20;}</style></defs><g id="Layer_2" data-name="Layer 2"><g id="Layer_5" data-name="Layer 5"><path class="cls-1" d="M435.66,470.9H60.25A35.25,35.25,0,0,1,25,435.66V60.25A35.25,35.25,0,0,1,60.25,25H435.66A35.25,35.25,0,0,1,470.9,60.25V435.66A35.24,35.24,0,0,1,435.66,470.9Z"/><line class="cls-2" x1="132.04" y1="470.9" x2="132.04" y2="25"/><line class="cls-2" x1="363.36" y1="470.9" x2="363.36" y2="25"/><line class="cls-2" x1="25" y1="247.95" x2="183.29" y2="247.95"/><line class="cls-2" x1="308.91" y1="247.95" x2="470.9" y2="247.95"/><polygon class="cls-3" points="247.95 183.3 275.94 134.81 219.96 134.81 247.95 183.3"/><line class="cls-3" x1="247.95" y1="333.42" x2="247.95" y2="422.75"/><line class="cls-3" x1="247.95" y1="74.53" x2="247.95" y2="163.86"/><polygon class="cls-3" points="247.95 317.27 219.96 365.75 275.94 365.75 247.95 317.27"/></g></g></svg>