<?xml version="1.0" encoding="utf-8"?>
<!-- Generator: Adobe Illustrator 25.4.1, SVG Export Plug-In . SVG Version: 6.00 Build 0)  -->
<svg version="1.1" xmlns="http://www.w3.org/2000/svg" xmlns:xlink="http://www.w3.org/1999/xlink" x="0px" y="0px"
	 viewBox="0 0 200 200" style="enable-background:new 0 0 200 200;" xml:space="preserve">
<style type="text/css">
	.st0{display:none;}
	.st1{fill:none;stroke:#C6C6C6;stroke-width:10;stroke-linecap:round;stroke-linejoin:round;stroke-miterlimit:10;}
	.st2{fill:none;stroke:#C6C6C6;stroke-width:6;stroke-linecap:round;stroke-linejoin:round;stroke-miterlimit:10;}
</style>
<g id="Layer_1" class="st0">
	
		<image style="display:inline;overflow:visible;" width="615" height="536" xlink:href="../1663419561697.jpg"  transform="matrix(0.6472 0 0 0.6472 -92 -73.4374)">
	</image>
</g>
<g id="Layer_2">
	<polyline class="st1" points="54.1,58.6 137.8,58.6 137.8,41.1 182.8,72.1 137.8,105.1 137.8,87.1 94.4,87.1 	"/>
	<line class="st2" x1="65.6" y1="43.8" x2="106.4" y2="43.8"/>
	<line class="st2" x1="131.3" y1="151.4" x2="178" y2="151.4"/>
	<line class="st1" x1="146.7" y1="137.4" x2="112.8" y2="137.4"/>
	<line class="st1" x1="113.4" y1="108.7" x2="111.5" y2="108.7"/>
	<line class="st1" x1="35.4" y1="58.6" x2="38.1" y2="58.6"/>
	<polyline class="st1" points="96.5,108.7 69.7,108.7 69.7,86.9 20.6,121.9 69.7,157.6 69.7,137.4 97,137.4 	"/>
	<line class="st1" x1="164.7" y1="137" x2="162.8" y2="137"/>
</g>
</svg>
