<?xml version="1.0" encoding="utf-8"?>
<!-- Generator: Adobe Illustrator 25.4.1, SVG Export Plug-In . SVG Version: 6.00 Build 0)  -->
<svg version="1.1" id="Layer_1" xmlns="http://www.w3.org/2000/svg" xmlns:xlink="http://www.w3.org/1999/xlink" x="0px" y="0px"
	 viewBox="0 0 20 25" style="enable-background:new 0 0 20 25;" xml:space="preserve">
<style type="text/css">
	.st0{fill:#4BBFE8;}
	.st1{fill:#BE1E2D;}
	.st2{fill:#2D2D2D;}
	.st3{fill:#232323;}
</style>
<rect x="4" y="0.9" class="st0" width="5.8" height="18.2"/>
<path class="st1" d="M18.8,12.8c-0.4,0.4-1,0.4-1.4,0L16,11.4l-1.4,1.4c-0.4,0.4-1,0.4-1.4,0s-0.4-1,0-1.4l1.4-1.4l-1.4-1.4
	c-0.4-0.4-0.4-1,0-1.4s1-0.4,1.4,0L16,8.6l1.4-1.4c0.4-0.4,1-0.4,1.4,0s0.4,1,0,1.4L17.4,10l1.4,1.4C19.2,11.8,19.2,12.4,18.8,12.8z
	"/>
<path class="st2" d="M0,1c0,0.6,0.4,1,1,1h2v4H1C0.4,6,0,6.4,0,7s0.4,1,1,1h2v4H1c-0.6,0-1,0.4-1,1s0.4,1,1,1h2v4H1
	c-0.6,0-1,0.4-1,1s0.4,1,1,1h7c1.7,0,3-1.3,3-3V3c0-1.7-1.3-3-3-3H1C0.4,0,0,0.4,0,1z M9,14v3c0,0.6-0.4,1-1,1H5v-4H9z M9,8v4H5V8H9
	z M8,2c0.6,0,1,0.4,1,1v3H5V2H8z"/>
<path class="st3" d="M13.5,23.8H9c-0.3,0-0.5-0.2-0.5-0.5v-1c0-0.3,0.2-0.5,0.5-0.5h4.5c0.3,0,0.5,0.2,0.5,0.5v1
	C14,23.6,13.8,23.8,13.5,23.8z"/>
<path class="st3" d="M5.9,23.1L9.1,25c0.2,0.1,0.5,0,0.5-0.3V21c0-0.3-0.3-0.4-0.5-0.3l-3.1,1.9C5.7,22.7,5.7,23,5.9,23.1z"/>
</svg>
