<?xml version="1.0" encoding="utf-8"?>
<!-- Generator: Adobe Illustrator 25.4.1, SVG Export Plug-In . SVG Version: 6.00 Build 0)  -->
<svg version="1.1" id="Layer_1" xmlns="http://www.w3.org/2000/svg" xmlns:xlink="http://www.w3.org/1999/xlink" x="0px" y="0px"
	 viewBox="0 0 20 20" style="enable-background:new 0 0 20 20;" xml:space="preserve">
<style type="text/css">
	.st0{fill:#4BBFE8;}
	.st1{fill:#BE1E2D;}
	.st2{fill:#2D2D2D;}
</style>
<rect x="0.9" y="4" class="st0" width="18.2" height="5.8"/>
<path class="st1" d="M7.2,18.8c-0.4-0.4-0.4-1,0-1.4L8.6,16l-1.4-1.4c-0.4-0.4-0.4-1,0-1.4c0.4-0.4,1-0.4,1.4,0l1.4,1.4l1.4-1.4
	c0.4-0.4,1-0.4,1.4,0s0.4,1,0,1.4L11.4,16l1.4,1.4c0.4,0.4,0.4,1,0,1.4c-0.4,0.4-1,0.4-1.4,0L10,17.4l-1.4,1.4
	C8.2,19.2,7.6,19.2,7.2,18.8z"/>
<path class="st2" d="M19,0c-0.6,0-1,0.4-1,1v2h-4V1c0-0.6-0.4-1-1-1s-1,0.4-1,1v2H8V1c0-0.6-0.4-1-1-1S6,0.4,6,1v2H2V1
	c0-0.6-0.4-1-1-1S0,0.4,0,1v7c0,1.7,1.3,3,3,3h14c1.7,0,3-1.3,3-3V1C20,0.4,19.6,0,19,0z M6,9H3C2.4,9,2,8.6,2,8V5h4V9z M12,9H8V5h4
	V9z M18,8c0,0.6-0.4,1-1,1h-3V5h4V8z"/>
</svg>
