<?xml version="1.0" encoding="utf-8"?>
<!-- Generator: Adobe Illustrator 25.4.1, SVG Export Plug-In . SVG Version: 6.00 Build 0)  -->
<svg version="1.1" id="Layer_1" xmlns="http://www.w3.org/2000/svg" xmlns:xlink="http://www.w3.org/1999/xlink" x="0px" y="0px"
	 viewBox="0 0 495.9 495.9" style="enable-background:new 0 0 495.9 495.9;" xml:space="preserve">
<style type="text/css">
	.st0{fill:#404041;}
	.st1{display:none;fill:#00ADEE;}
	.st2{fill:#00ADEE;}
</style>
<path class="st0" d="M435.7,495.9H60.2C27,495.9,0,468.9,0,435.7V60.2C0,27,27,0,60.2,0h375.4c33.2,0,60.2,27,60.2,60.2v375.4
	C495.9,468.9,468.9,495.9,435.7,495.9z M60.2,50C54.6,50,50,54.6,50,60.2v375.4c0,5.6,4.6,10.2,10.2,10.2h375.4
	c5.6,0,10.2-4.6,10.2-10.2V60.2c0-5.7-4.6-10.2-10.2-10.2H60.2z"/>
<rect x="85.3" y="25" class="st0" width="50" height="445.9"/>
<rect x="360.7" y="25" class="st0" width="50" height="445.9"/>
<rect x="25" y="223" class="st0" width="102.4" height="50"/>
<rect x="366.4" y="223" class="st0" width="104.5" height="50"/>
<rect x="142.8" y="222.6" class="st1" width="210.3" height="50"/>
<rect x="223" y="140.3" class="st1" width="50" height="216.1"/>
<path class="st2" d="M328.1,272.6H167.8c-13.8,0-25-11.2-25-25v0c0-13.8,11.2-25,25-25h160.3c13.8,0,25,11.2,25,25v0
	C353.1,261.4,341.9,272.6,328.1,272.6z"/>
<path class="st2" d="M248,356.4L248,356.4c-13.8,0-25-11.2-25-25V165.3c0-13.8,11.2-25,25-25h0c13.8,0,25,11.2,25,25v166.1
	C273,345.2,261.8,356.4,248,356.4z"/>
</svg>
