<?xml version="1.0" encoding="utf-8"?>
<!-- Generator: Adobe Illustrator 25.4.1, SVG Export Plug-In . SVG Version: 6.00 Build 0)  -->
<svg version="1.1" id="Layer_1" xmlns="http://www.w3.org/2000/svg" xmlns:xlink="http://www.w3.org/1999/xlink" x="0px" y="0px"
	 viewBox="0 0 495.9 495.9" style="enable-background:new 0 0 495.9 495.9;" xml:space="preserve">
<style type="text/css">
	.st0{fill:none;stroke:#404041;stroke-width:50;stroke-miterlimit:10;}
	.st1{fill:#00ADEE;}
</style>
<path class="st0" d="M25,435.7V60.2C25,40.8,40.8,25,60.2,25h375.4c19.5,0,35.2,15.8,35.2,35.2v375.4c0,19.5-15.8,35.2-35.2,35.2
	H60.2C40.8,470.9,25,455.1,25,435.7z"/>
<line class="st0" x1="25" y1="110.3" x2="470.9" y2="110.3"/>
<line class="st0" x1="25" y1="385.6" x2="470.9" y2="385.6"/>
<line class="st0" x1="247.9" y1="25" x2="247.9" y2="127.4"/>
<line class="st0" x1="247.9" y1="366.4" x2="247.9" y2="470.9"/>
<path class="st1" d="M222.9,327.7V167.3c0-13.8,11.2-25,25-25h0c13.8,0,25,11.2,25,25v160.3c0,13.8-11.2,25-25,25h0
	C234.1,352.6,222.9,341.5,222.9,327.7z"/>
<path class="st1" d="M139.9,247.5L139.9,247.5c0-13.8,11.2-25,25-25H331c13.8,0,25,11.2,25,25v0c0,13.8-11.2,25-25,25H164.9
	C151.1,272.5,139.9,261.3,139.9,247.5z"/>
</svg>
