<?xml version="1.0" encoding="utf-8"?>
<!-- Generator: Adobe Illustrator 25.4.1, SVG Export Plug-In . SVG Version: 6.00 Build 0)  -->
<svg version="1.1" id="Layer_1" xmlns="http://www.w3.org/2000/svg" xmlns:xlink="http://www.w3.org/1999/xlink" x="0px" y="0px"
	 viewBox="0 0 495.9 495.9" style="enable-background:new 0 0 495.9 495.9;" xml:space="preserve">
<style type="text/css">
	.st0{fill:none;stroke:#9BB4BF;stroke-width:50;stroke-miterlimit:10;}
	.st1{fill:none;stroke:#00AEEF;stroke-width:50;stroke-miterlimit:10;}
	.st2{fill:#FFFFFF;stroke:#00AEEF;stroke-width:50;stroke-miterlimit:10;}
</style>
<path class="st0" d="M435.7,470.9H60.2c-19.5,0-35.2-15.8-35.2-35.2V60.2C25,40.8,40.8,25,60.2,25h375.4c19.5,0,35.2,15.8,35.2,35.2
	v375.4C470.9,455.1,455.1,470.9,435.7,470.9z"/>
<line class="st0" x1="132" y1="470.9" x2="132" y2="25"/>
<line class="st0" x1="363.4" y1="470.9" x2="363.4" y2="25"/>
<line class="st0" x1="25" y1="247.9" x2="132" y2="247.9"/>
<line class="st0" x1="363.4" y1="247.9" x2="470.9" y2="247.9"/>
<line class="st1" x1="247.9" y1="140.9" x2="247.9" y2="379.9"/>
<polygon class="st2" points="247.9,110.8 213.1,171.1 282.8,171.1 "/>
<polygon class="st2" points="247.9,383.7 282.8,323.4 213.1,323.4 "/>
</svg>
