<?xml version="1.0" encoding="utf-8"?>
<!-- Generator: Adobe Illustrator 25.4.1, SVG Export Plug-In . SVG Version: 6.00 Build 0)  -->
<svg version="1.1" id="Layer_1" xmlns="http://www.w3.org/2000/svg" xmlns:xlink="http://www.w3.org/1999/xlink" x="0px" y="0px"
	 viewBox="0 0 16 16" style="enable-background:new 0 0 16 16;" xml:space="preserve">
<style type="text/css">
	.st0{fill:#404041;}
	.st1{fill:#00ADEE;}
</style>
<g>
	<path class="st0" d="M0,8c0,4.4,3.6,8,8,8s8-3.6,8-8s-3.6-8-8-8S0,3.6,0,8z M14.5,8c0,3.6-2.9,6.5-6.5,6.5S1.5,11.6,1.5,8
		S4.4,1.5,8,1.5S14.5,4.4,14.5,8z"/>
	<path class="st1" d="M7.4,4.2C7.6,4.1,7.7,4,8,4c0.2,0,0.4,0.1,0.5,0.2l2.8,3c0.2,0.2,0.3,0.5,0.1,0.8c-0.1,0.3-0.4,0.4-0.7,0.4H9
		v2.8C9,11.7,8.7,12,8.2,12H7.8C7.3,12,7,11.7,7,11.2V8.5H5.2C4.9,8.5,4.7,8.3,4.5,8C4.4,7.8,4.4,7.4,4.6,7.2L7.4,4.2z"/>
</g>
</svg>
