<?xml version="1.0" encoding="utf-8"?>
<!-- Generator: Adobe Illustrator 25.4.1, SVG Export Plug-In . SVG Version: 6.00 Build 0)  -->
<svg version="1.1" id="Layer_1" xmlns="http://www.w3.org/2000/svg" xmlns:xlink="http://www.w3.org/1999/xlink" x="0px" y="0px"
	 viewBox="0 0 16 16" style="enable-background:new 0 0 16 16;" xml:space="preserve">
<style type="text/css">
	.st0{fill:#404041;}
	.st1{fill:#00ADEE;}
</style>
<g>
	<path class="st0" d="M8,16c4.4,0,8-3.6,8-8s-3.6-8-8-8S0,3.6,0,8S3.6,16,8,16z M8,1.5c3.6,0,6.5,2.9,6.5,6.5s-2.9,6.5-6.5,6.5
		S1.5,11.6,1.5,8S4.4,1.5,8,1.5z"/>
	<path class="st1" d="M4.2,8.6C4.1,8.4,4,8.3,4,8c0-0.2,0.1-0.4,0.2-0.5l3-2.8C7.4,4.5,7.7,4.4,8,4.6C8.3,4.7,8.4,5,8.4,5.3V7h2.8
		C11.7,7,12,7.3,12,7.8v0.4C12,8.7,11.7,9,11.2,9H8.5v1.8c0,0.3-0.2,0.5-0.5,0.7c-0.2,0.1-0.6,0.1-0.8-0.1L4.2,8.6z"/>
</g>
</svg>
