<?xml version="1.0" encoding="utf-8"?>
<!-- Generator: Adobe Illustrator 25.4.1, SVG Export Plug-In . SVG Version: 6.00 Build 0)  -->
<svg version="1.1" id="Layer_1" xmlns="http://www.w3.org/2000/svg" xmlns:xlink="http://www.w3.org/1999/xlink" x="0px" y="0px"
	 viewBox="0 0 16 16" style="enable-background:new 0 0 16 16;" xml:space="preserve">
<path d="M8,0C3.6,0,0,3.6,0,8s3.6,8,8,8s8-3.6,8-8S12.4,0,8,0z M8,14.5c-3.6,0-6.5-2.9-6.5-6.5S4.4,1.5,8,1.5s6.5,2.9,6.5,6.5
	S11.6,14.5,8,14.5z"/>
<path d="M11.8,7.4C11.9,7.6,12,7.7,12,8c0,0.2-0.1,0.4-0.2,0.5l-3,2.8c-0.2,0.2-0.5,0.3-0.8,0.1c-0.3-0.1-0.4-0.4-0.4-0.7V9L4.8,9
	C4.3,9,4,8.7,4,8.2V7.8C4,7.3,4.3,7,4.8,7l2.7,0V5.2c0-0.3,0.2-0.5,0.5-0.7c0.2-0.1,0.6-0.1,0.8,0.1L11.8,7.4z"/>
</svg>
