<?xml version="1.0" encoding="utf-8"?>
<!-- Generator: Adobe Illustrator 25.4.1, SVG Export Plug-In . SVG Version: 6.00 Build 0)  -->
<svg version="1.1" id="Layer_1" xmlns="http://www.w3.org/2000/svg" xmlns:xlink="http://www.w3.org/1999/xlink" x="0px" y="0px"
	 viewBox="0 0 16 16" style="enable-background:new 0 0 16 16;" xml:space="preserve">
<style type="text/css">
	.st0{fill:#404041;}
	.st1{fill:#00ADEE;}
</style>
<g>
	<path class="st0" d="M16,8c0-4.4-3.6-8-8-8S0,3.6,0,8s3.6,8,8,8S16,12.4,16,8z M1.5,8c0-3.6,2.9-6.5,6.5-6.5s6.5,2.9,6.5,6.5
		s-2.9,6.5-6.5,6.5S1.5,11.6,1.5,8z"/>
	<path class="st1" d="M8.6,11.8C8.4,11.9,8.3,12,8,12c-0.2,0-0.4-0.1-0.5-0.2l-2.8-3C4.5,8.6,4.4,8.3,4.6,8C4.7,7.7,5,7.6,5.3,7.6H7
		V4.8C7,4.3,7.3,4,7.8,4h0.4C8.7,4,9,4.3,9,4.8v2.7h1.8c0.3,0,0.5,0.2,0.7,0.5c0.1,0.2,0.1,0.6-0.1,0.8L8.6,11.8z"/>
</g>
</svg>
