<?xml version="1.0" encoding="utf-8"?>
<!-- Generator: Adobe Illustrator 25.4.1, SVG Export Plug-In . SVG Version: 6.00 Build 0)  -->
<svg version="1.1" id="Layer_1" xmlns="http://www.w3.org/2000/svg" xmlns:xlink="http://www.w3.org/1999/xlink" x="0px" y="0px"
	 viewBox="0 0 400 400" style="enable-background:new 0 0 400 400;" xml:space="preserve">
<style type="text/css">
	.st0{fill:url(#SVGID_1_);}
	.st1{opacity:0.3;fill:#FFFFFF;enable-background:new    ;}
	.st2{opacity:0.15;fill:#231F20;enable-background:new    ;}
	.st3{opacity:0.2;fill:#FFFFFF;enable-background:new    ;}
	.st4{fill:none;stroke:#FFFFFF;stroke-width:15;stroke-miterlimit:10;}
	.st5{fill:none;stroke:#FFFFFF;stroke-width:18;stroke-miterlimit:10;}
	.st6{fill:none;stroke:#FFFFFF;stroke-width:18;stroke-miterlimit:10;stroke-dasharray:21.0545,14.3553;}
	.st7{fill:#FFFFFF;}
	.st8{fill:none;stroke:#FFFFFF;stroke-width:12;stroke-miterlimit:10;}
	.st9{fill:none;stroke:#FFFFFF;stroke-width:12;stroke-miterlimit:10;stroke-dasharray:25.8362,12.9181;}
	.st10{display:none;fill:none;stroke:#FFFFFF;stroke-width:2;stroke-miterlimit:10;}
	.st11{fill:none;stroke:#FFFFFF;stroke-width:3;stroke-miterlimit:10;}
</style>
<linearGradient id="SVGID_1_" gradientUnits="userSpaceOnUse" x1="200" y1="390.1" x2="200" y2="9.9" gradientTransform="matrix(1 0 0 -1 0 400)">
	<stop  offset="0" style="stop-color:#2ABAFF"/>
	<stop  offset="0.9966" style="stop-color:#0099FF"/>
</linearGradient>
<path class="st0" d="M291.9,390.1H108.1c-54.3,0-98.2-44-98.2-98.2V108.1c0-54.3,44-98.2,98.2-98.2h183.8c54.3,0,98.2,44,98.2,98.2
	v183.8C390.1,346.2,346.2,390.1,291.9,390.1z"/>
<rect x="200" y="31" class="st1" width="169" height="169"/>
<rect x="200" y="199.7" class="st2" width="169" height="169"/>
<rect x="31" y="199.7" class="st3" width="169" height="169.4"/>
<rect x="115" y="115.8" class="st3" width="169" height="169.4"/>
<line class="st4" x1="31" y1="18.8" x2="31" y2="381.2"/>
<line class="st4" x1="369" y1="18.8" x2="369" y2="381.2"/>
<line class="st4" x1="381.2" y1="369" x2="18.8" y2="369"/>
<line class="st4" x1="381.2" y1="31" x2="18.8" y2="31"/>
<g>
	<g>
		<line class="st5" x1="200" y1="93.3" x2="200" y2="104.3"/>
		<line class="st6" x1="200" y1="118.7" x2="200" y2="288.5"/>
		<line class="st5" x1="200" y1="295.7" x2="200" y2="306.7"/>
		<g>
			<polygon class="st7" points="159.6,105.1 200,35.2 240.4,105.1 			"/>
		</g>
		<g>
			<polygon class="st7" points="159.6,294.9 200,364.8 240.4,294.9 			"/>
		</g>
	</g>
</g>
<g>
	<g>
		<line class="st8" x1="318.7" y1="200" x2="308.7" y2="200"/>
		<line class="st9" x1="295.8" y1="200" x2="263.5" y2="200"/>
		<line class="st8" x1="257" y1="200" x2="247" y2="200"/>
		<g>
			<polygon class="st7" points="310,170.1 361.8,200 310,229.9 			"/>
		</g>
		<g>
			<polygon class="st7" points="255.8,170.1 204,200 255.8,229.9 			"/>
		</g>
	</g>
</g>
<circle class="st10" cx="200" cy="200" r="161.8"/>
<line class="st11" x1="369" y1="31" x2="31" y2="369"/>
<line class="st11" x1="35.2" y1="35.2" x2="364.8" y2="364.8"/>
<line class="st11" x1="200" y1="200" x2="31" y2="200"/>
<g>
	<g>
		<line class="st11" x1="350.8" y1="115.5" x2="48.1" y2="115.5"/>
		<g>
			<polygon class="st7" points="348.2,106.5 363.8,115.5 348.2,124.5 			"/>
		</g>
		<g>
			<polygon class="st7" points="50.7,106.5 35.2,115.5 50.7,124.5 			"/>
		</g>
	</g>
</g>
<line class="st11" x1="284.5" y1="31" x2="284.5" y2="369"/>
<line class="st11" x1="115.5" y1="35.2" x2="115.5" y2="361.8"/>
<g>
	<g>
		<line class="st11" x1="350.8" y1="284.5" x2="50.1" y2="284.5"/>
		<g>
			<polygon class="st7" points="348.2,275.5 363.8,284.5 348.2,293.5 			"/>
		</g>
		<g>
			<polygon class="st7" points="52.7,275.5 37.2,284.5 52.7,293.5 			"/>
		</g>
	</g>
</g>
</svg>
