<?xml version="1.0" encoding="utf-8"?>
<!-- Generator: Adobe Illustrator 25.4.1, SVG Export Plug-In . SVG Version: 6.00 Build 0)  -->
<svg version="1.1" id="Layer_1" xmlns="http://www.w3.org/2000/svg" xmlns:xlink="http://www.w3.org/1999/xlink" x="0px" y="0px"
	 viewBox="0 0 400 400" style="enable-background:new 0 0 400 400;" xml:space="preserve">
<style type="text/css">
	.st0{display:none;fill:#231F20;}
	.st1{fill:url(#SVGID_1_);}
	.st2{display:none;fill:none;stroke:#231F20;stroke-miterlimit:10;}
	.st3{display:none;opacity:0.1;fill:#FFFFFF;}
	.st4{opacity:0.3;fill:#FFFFFF;}
	.st5{opacity:0.15;fill:#231F20;}
	.st6{opacity:0.2;fill:#FFFFFF;}
	.st7{display:none;fill:none;stroke:#FFFFFF;stroke-width:2;stroke-miterlimit:10;}
	.st8{fill:none;stroke:#FFFFFF;stroke-width:15;stroke-miterlimit:10;}
	.st9{fill:none;stroke:#FFFFFF;stroke-width:15;stroke-miterlimit:10;stroke-dasharray:21.2649,10.6324;}
	.st10{fill:#FFFFFF;}
	.st11{fill:none;stroke:#FFFFFF;stroke-width:10;stroke-miterlimit:10;}
	.st12{fill:none;stroke:#FFFFFF;stroke-width:10;stroke-miterlimit:10;stroke-dasharray:18.8643,9.4321;}
	.st13{fill:none;stroke:#FFFFFF;stroke-width:2;stroke-miterlimit:10;}
	.st14{fill:none;stroke:#FFFFFF;stroke-width:3;stroke-miterlimit:10;}
</style>
<rect class="st0" width="400" height="400"/>
<linearGradient id="SVGID_1_" gradientUnits="userSpaceOnUse" x1="200" y1="9.8511" x2="200" y2="390.1489">
	<stop  offset="0" style="stop-color:#2ABAFF"/>
	<stop  offset="0.9966" style="stop-color:#0099FF"/>
</linearGradient>
<path class="st1" d="M291.9,390.1H108.1c-54.3,0-98.2-44-98.2-98.2V108.1c0-54.3,44-98.2,98.2-98.2h183.8c54.3,0,98.2,44,98.2,98.2
	v183.8C390.1,346.2,346.2,390.1,291.9,390.1z"/>
<rect x="31" y="31" class="st2" width="338.1" height="338.1"/>
<rect x="31" y="31" class="st3" width="169" height="169"/>
<rect x="200" y="31" class="st4" width="169" height="169"/>
<rect x="200" y="199.7" class="st5" width="169" height="169"/>
<rect x="31" y="199.7" class="st6" width="169" height="169.4"/>
<path class="st7" d="M300.3,382.8H99.7c-45.6,0-82.5-36.9-82.5-82.5V99.7c0-45.6,36.9-82.5,82.5-82.5h200.7
	c45.6,0,82.5,36.9,82.5,82.5v200.7C382.8,345.9,345.9,382.8,300.3,382.8z"/>
<rect x="115" y="115.8" class="st6" width="169" height="169.4"/>
<line class="st8" x1="31" y1="18.8" x2="31" y2="381.2"/>
<line class="st8" x1="369" y1="18.8" x2="369" y2="381.2"/>
<line class="st8" x1="381.2" y1="369" x2="18.8" y2="369"/>
<line class="st8" x1="381.2" y1="31" x2="18.8" y2="31"/>
<g>
	<g>
		<line class="st8" x1="200" y1="89" x2="200" y2="99"/>
		<line class="st9" x1="200" y1="109.6" x2="200" y2="295.7"/>
		<line class="st8" x1="200" y1="301" x2="200" y2="311"/>
		<g>
			<polygon class="st10" points="162.6,99.9 200,35.2 237.4,99.9 			"/>
		</g>
		<g>
			<polygon class="st10" points="162.6,300.1 200,364.8 237.4,300.1 			"/>
		</g>
	</g>
</g>
<g>
	<g>
		<line class="st11" x1="325.9" y1="200" x2="315.9" y2="200"/>
		<line class="st12" x1="306.5" y1="200" x2="254.6" y2="200"/>
		<line class="st11" x1="249.9" y1="200" x2="239.9" y2="200"/>
		<g>
			<polygon class="st10" points="318.6,175.1 361.8,200 318.6,224.9 			"/>
		</g>
		<g>
			<polygon class="st10" points="247.2,175.1 204,200 247.2,224.9 			"/>
		</g>
	</g>
</g>
<circle class="st13" cx="200" cy="200" r="161.8"/>
<line class="st14" x1="369" y1="31" x2="31" y2="369"/>
<line class="st14" x1="35.2" y1="35.2" x2="364.8" y2="364.8"/>
<line class="st14" x1="200" y1="200" x2="31" y2="200"/>
<g>
	<g>
		<line class="st14" x1="350.8" y1="115.5" x2="48.1" y2="115.5"/>
		<g>
			<polygon class="st10" points="348.2,106.5 363.8,115.5 348.2,124.5 			"/>
		</g>
		<g>
			<polygon class="st10" points="50.7,106.5 35.2,115.5 50.7,124.5 			"/>
		</g>
	</g>
</g>
<line class="st14" x1="284.5" y1="31" x2="284.5" y2="369"/>
<line class="st14" x1="115.5" y1="35.2" x2="115.5" y2="361.8"/>
<g>
	<g>
		<line class="st14" x1="350.8" y1="284.5" x2="50.1" y2="284.5"/>
		<g>
			<polygon class="st10" points="348.2,275.5 363.8,284.5 348.2,293.5 			"/>
		</g>
		<g>
			<polygon class="st10" points="52.7,275.5 37.2,284.5 52.7,293.5 			"/>
		</g>
	</g>
</g>
<rect class="st0" width="400" height="400"/>
</svg>
